<svg width="708" height="550" viewBox="0 0 708 550" fill="none" xmlns="http://www.w3.org/2000/svg">
<path fill-rule="evenodd" clip-rule="evenodd" d="M101.133 460.382C96.4361 476.498 88.508 489.448 75.0716 493.814C72.1428 494.765 68.9989 493.168 68.0496 490.246C67.1002 487.325 68.705 484.185 71.6338 483.233C79.6486 480.629 86.0348 472.359 90.4275 457.288C94.7599 442.421 96.6853 422.442 96.9602 399.185C97.4669 356.345 92.384 303.832 87.6271 254.684C87.2246 250.525 86.8244 246.391 86.43 242.288C83.9111 216.076 81.6357 191.173 80.5792 169.827C79.5291 148.612 79.6489 130.394 82.1264 117.774C83.3503 111.539 85.2861 105.893 88.5804 101.981C90.2979 99.9417 92.4577 98.2883 95.1099 97.3783C97.7673 96.4666 100.544 96.43 103.287 97.0399C108.549 98.21 114.032 101.828 119.757 107.085C125.596 112.447 132.222 120.017 139.745 129.936C182.237 185.968 212.003 231.544 235.455 267.453C240.294 274.865 244.864 281.862 249.223 288.457C274.911 327.321 292.712 351.232 314.236 363.738C335.3 375.979 360.836 377.724 403.432 369.125C444.56 360.824 500.391 343.156 581.646 317.441C584.685 316.481 587.759 315.507 590.868 314.524C593.804 313.595 596.936 315.216 597.863 318.145C598.789 321.074 597.16 324.202 594.224 325.131C590.902 326.182 587.621 327.219 584.378 328.246C503.712 353.774 447.362 371.609 405.628 380.033C362.147 388.81 333.243 387.668 308.616 373.358C284.448 359.315 265.306 333.011 239.913 294.594C235.521 287.948 230.927 280.913 226.07 273.477C202.622 237.577 173.087 192.354 130.85 136.66C123.532 127.011 117.359 120.015 112.201 115.279C106.93 110.439 103.217 108.428 100.848 107.901C99.7757 107.663 99.1275 107.761 98.721 107.901C98.3094 108.042 97.7662 108.356 97.1118 109.133C95.6623 110.855 94.1784 114.24 93.0678 119.898C90.876 131.063 90.6668 148.08 91.7151 169.263C92.7571 190.316 95.0076 214.976 97.5287 241.21C97.9263 245.347 98.3307 249.523 98.7379 253.73C103.481 302.708 108.623 355.821 108.109 399.3C107.83 422.883 105.89 444.059 101.133 460.382Z" fill="#78D4F7"/>
<path fill-rule="evenodd" clip-rule="evenodd" d="M109.333 462.028C100.105 477.342 89.0022 489.287 75.0721 493.813C72.1432 494.764 68.9994 493.167 68.05 490.246C67.1007 487.324 68.7055 484.184 71.6343 483.232C81.7463 479.947 91.054 470.786 99.7806 456.304C108.441 441.931 116.037 423.145 123.103 401.981C130.064 381.13 136.417 358.272 142.756 335.459L143.009 334.546C149.413 311.499 155.816 288.515 162.771 268.067C169.706 247.68 177.318 229.41 186.279 215.933C195.173 202.557 206.157 192.787 220.118 191.748C233.983 190.716 248.603 198.477 264.375 214.641C280.266 230.925 298.228 256.644 318.886 293.79C371.943 389.205 404.886 442.106 427.12 467.089C438.429 479.796 445.85 483.954 450.703 484.302C454.763 484.594 458.926 482.195 464.128 474.319C469.195 466.645 474.058 455.568 480.002 442.031L480.226 441.522C486.182 427.955 493.08 412.335 502.017 396.616C519.928 365.114 546.232 332.85 590.445 314.677C593.294 313.506 596.55 314.861 597.719 317.701C598.889 320.543 597.526 323.795 594.679 324.966C553.586 341.855 528.91 371.847 511.712 402.097C503.094 417.253 496.406 432.382 490.437 445.975L489.891 447.217C484.224 460.127 479.035 471.952 473.435 480.434C467.725 489.079 460.333 496.151 449.886 495.401C440.23 494.707 430.191 487.309 418.779 474.485C395.575 448.409 362.044 394.347 309.136 299.201C288.663 262.387 271.262 237.659 256.382 222.41C241.384 207.04 229.824 202.183 220.931 202.844C212.13 203.499 203.772 209.735 195.567 222.077C187.426 234.319 180.182 251.478 173.329 271.63C166.494 291.725 160.176 314.392 153.752 337.506L153.459 338.562C147.149 361.268 140.733 384.362 133.68 405.484C126.529 426.901 118.628 446.604 109.333 462.028Z" fill="#2A294D"/>
<path fill-rule="evenodd" clip-rule="evenodd" d="M231.12 313.729C210.895 374.397 181.787 461.711 74.9546 493.849C72.0058 494.737 68.898 493.072 68.0131 490.129C67.1286 487.188 68.8017 484.082 71.7509 483.196C172.523 452.88 199.694 372.022 220.103 311.29C223.909 299.964 227.479 289.335 231.249 279.867C237.105 265.157 243.824 252.386 253.628 245.207C264.109 237.53 276.922 236.993 292.619 243.821C308.023 250.522 327.003 264.593 351.197 287.407C375.481 310.305 405.382 342.367 442.627 385.493C454.68 399.449 462.364 402.027 468.193 401.015C471.386 400.461 474.838 398.731 478.891 395.592C482.947 392.45 487.241 388.189 492.171 382.997C493.818 381.264 495.518 379.445 497.282 377.557C516.516 356.973 543.336 328.269 591.001 314.483C593.959 313.627 597.049 315.325 597.902 318.277C598.756 321.228 597.05 324.314 594.091 325.17C549.489 338.071 524.589 364.677 505.372 385.21C503.623 387.077 501.922 388.895 500.257 390.647C495.297 395.87 490.502 400.673 485.719 404.379C480.93 408.088 475.791 410.989 470.088 411.978C458.124 414.054 446.793 407.373 434.178 392.763C397.036 349.76 367.418 318.021 343.533 295.501C319.561 272.895 301.725 259.927 288.153 254.023C274.873 248.247 266.547 249.538 260.215 254.174C253.204 259.308 247.432 269.337 241.609 283.964C238.133 292.696 234.772 302.779 231.12 313.729Z" fill="#F24C76"/>
<path fill-rule="evenodd" clip-rule="evenodd" d="M311.311 291.649C314.003 290.155 317.397 291.12 318.89 293.806C371.945 389.216 404.89 442.114 427.122 467.099C438.43 479.804 445.852 483.962 450.704 484.31C454.764 484.602 458.928 482.204 464.13 474.328C469.197 466.656 474.062 455.577 480.004 442.04L480.228 441.533C486.186 427.967 493.083 412.347 502.02 396.628C519.931 365.128 546.236 332.865 590.448 314.693C593.298 313.521 596.554 314.876 597.723 317.717C598.892 320.558 597.53 323.81 594.683 324.981C553.589 341.871 528.913 371.861 511.714 402.109C503.097 417.265 496.409 432.394 490.44 445.987C490.256 446.401 490.076 446.816 489.893 447.229C484.226 460.138 479.037 471.962 473.436 480.443C467.726 489.088 460.335 496.16 449.888 495.409C440.232 494.716 430.193 487.318 418.781 474.494C395.577 448.419 362.046 394.359 309.139 299.216C307.646 296.532 308.618 293.142 311.311 291.649Z" fill="#2A294D"/>
</svg>
