<svg xmlns="http://www.w3.org/2000/svg" viewBox="0.00 0.00 216.00 216.00" width="216.00" height="216.00" role="img" aria-labelledby="title desc"><title id="title">Avner Gomes symbol</title><desc id="desc">Square, transparent, for the fixed logo boxes web layouts use.</desc><g transform="translate(-9.76 -20.80) scale(0.92)"><path d="M128.00 242.00L182.54 123.00A60.00 60.00 0 1 0 73.46 123.00Z" fill="#12203E"/><path d="M128.00 242.00L182.54 123.00A60.00 60.00 0 1 0 73.46 123.00Z" fill="none" stroke="#159C90" stroke-width="13.5" stroke-linejoin="round"/><g transform="translate(128 98)"><circle r="50" fill="#12203E"/><path d="M-14.9 -43.9L-15.9 -42.8L-13.4 -43.6L-14.8 -42.4L-22.9 -39.4L-22.0 -36.3L-23.2 -33.8L-16.4 -40.0L-14.8 -38.8L-15.4 -37.1L-13.3 -38.2L-12.3 -32.8L-21.6 -30.1L-17.8 -31.4L-18.6 -29.3L-16.2 -28.7L-22.3 -27.9L-27.6 -23.6L-27.1 -25.1L-28.1 -22.3L-32.4 -19.7L-33.8 -14.6L-34.1 -19.0L-39.8 -19.3L-42.5 -13.2L-42.1 -10.7L-38.1 -12.4L-40.3 -7.9L-37.7 -6.6L-37.9 -1.1L-34.9 -0.1L-31.2 -2.7L-31.5 0.2L-30.1 -2.3L-29.0 -0.7L-24.5 -0.2L-21.1 4.3L-16.5 6.2L-14.3 11.0L-2.8 15.0L-7.2 27.8L-12.2 29.7L-15.3 35.6L-18.5 35.0L-17.1 37.6L-20.6 38.7L-18.6 44.3L-23.7 40.7L-29.5 23.1L-33.6 19.6L-37.7 12.0L-35.7 0.0L-38.7 -0.8L-45.1 -13.3L-42.2 -24.4L-44.9 -17.2L-43.9 -21.6L-38.9 -31.0L-23.3 -44.2ZM45.1 -21.6L42.7 -22.9L47.3 -15.9L47.2 -8.2L43.2 -16.5L39.1 -20.4L47.7 -6.4L48.5 -9.0L46.8 12.2L42.1 23.6L35.1 31.9L31.9 32.9L35.2 16.2L33.0 4.6L29.4 3.0L20.3 5.8L13.0 -0.5L12.0 -8.9L17.8 -21.0L27.2 -23.4L28.0 -20.8L33.6 -19.0L33.8 -21.3L39.1 -21.8L37.2 -26.1L34.6 -25.0L32.8 -26.9L33.8 -29.5L36.0 -29.7L32.1 -33.6L32.6 -31.2L30.6 -32.3L33.0 -24.3L24.7 -29.9L29.5 -26.5L29.3 -24.6L23.4 -28.6L21.0 -27.2L20.0 -22.0L15.7 -21.7L14.1 -26.4L18.2 -27.1L15.2 -30.6L19.2 -34.6L17.6 -36.8L21.3 -35.2L22.6 -37.9L21.9 -39.9L19.6 -39.6L16.8 -42.3L20.5 -36.2L14.1 -39.3L14.0 -44.6L20.6 -42.3L17.7 -44.6L19.4 -44.1L18.3 -46.1L14.3 -47.5L19.6 -45.8L7.3 -49.4L16.3 -47.3L27.2 -42.0L36.5 -34.2L43.7 -24.3ZM0.5 -47.4L2.6 -46.9L2.9 -42.8L1.7 -42.5L2.8 -42.5L-2.8 -40.2L-4.9 -37.3L-6.8 -37.9L-7.5 -40.8L-5.6 -45.0L-7.1 -45.8L0.5 -47.4Z" fill="#35B6A8"/></g><circle cx="112.81" cy="127.20" r="11.2" fill="#12203E"/><circle cx="112.81" cy="127.20" r="9" fill="#E4A348"/></g></svg>
